<svg width="315" height="44" viewBox="0 0 315 44" fill="none" xmlns="http://www.w3.org/2000/svg">
<path d="M17.0408 9.63014L2.23935 13.648C1.59798 13.8226 1.03117 14.2062 0.626441 14.7396C0.22171 15.2731 0.00156723 15.9266 1.09908e-09 16.5994V33.7413C-1.43047e-05 34.2786 0.139626 34.8064 0.404877 35.2717C0.670128 35.7369 1.05163 36.1232 1.51102 36.3917L13.9624 43.6719C14.2131 43.8187 14.4962 43.8992 14.7856 43.9062C15.075 43.9131 15.3616 43.8462 15.6188 43.7116C15.876 43.5769 16.0957 43.379 16.2577 43.1358C16.4196 42.8927 16.5186 42.6122 16.5455 42.3201L19.2083 11.4797C19.2338 11.1989 19.1919 10.916 19.0862 10.6552C18.9805 10.3943 18.8141 10.1632 18.6012 9.98153C18.3884 9.79988 18.1353 9.67305 17.8636 9.61186C17.5919 9.55068 17.3096 9.55695 17.0408 9.63014Z" fill="#FF6D00"/>
<path d="M23.4791 5.0455L20.3134 41.7002C20.286 42.0189 20.3455 42.3391 20.4852 42.626C20.625 42.9128 20.8397 43.1554 21.106 43.3272C21.3724 43.499 21.6801 43.5936 21.9958 43.6006C22.3115 43.6076 22.623 43.5267 22.8965 43.3668L34.8215 36.3916C35.2817 36.1236 35.6639 35.7376 35.9299 35.2723C36.1958 34.807 36.3361 34.2789 36.3364 33.7412V1.74974C36.3365 1.4814 36.2757 1.21664 36.1586 0.975951C36.0415 0.735257 35.8713 0.525081 35.6612 0.361685C35.4511 0.198288 35.2067 0.0860536 34.9469 0.0336632C34.6872 -0.0187271 34.419 -0.00986793 34.1631 0.0595555L25.7068 2.35576C25.1078 2.51795 24.5725 2.86315 24.1739 3.3444C23.7753 3.82566 23.5327 4.41962 23.4791 5.0455Z" fill="#FF5722"/>
<path d="M75.8731 2.29688V34.4571H70.5544V31.8398C69.1402 33.8565 66.654 34.9696 63.7374 34.9696C57.8202 34.9696 53.4464 30.2514 53.4464 23.8628C53.4464 17.4742 57.8202 12.7581 63.7374 12.7581C66.4388 12.7581 68.5396 13.6148 70.083 15.2873V4.10626L75.8731 2.29688ZM64.8094 17.9906C61.7227 17.9906 59.3206 20.3497 59.3206 23.8218C59.3206 27.3819 61.6796 29.69 64.8094 29.69C67.7259 29.69 70.1691 27.6753 70.1691 23.8589C70.1691 20.0915 67.7259 17.9906 64.8094 17.9906Z" fill="white"/>
<path d="M84.7166 25.7958C85.4032 28.4971 87.5901 29.9975 90.6768 29.9975C92.7796 29.9975 94.7513 29.2678 96.594 27.8457L98.9961 31.799C96.4668 33.8999 93.6364 34.9718 90.5066 34.9718C83.9459 35.099 78.7564 29.9975 78.8855 23.8651C78.7564 17.7327 83.8598 12.6312 89.9922 12.7603C95.8604 12.7603 99.9819 17.0911 99.9819 22.621C99.9757 23.6909 99.8444 24.7564 99.5907 25.7958H84.7166ZM94.366 21.729C94.323 19.1059 92.3062 17.4256 89.777 17.4256C87.3338 17.4256 85.3601 19.0981 84.7166 21.7134L94.366 21.729Z" fill="white"/>
<path d="M123.22 13.2314L112.716 34.9715H110.785L100.279 13.2314H106.369L111.728 25.238L117.088 13.2314H123.22Z" fill="white"/>
<path d="M134.728 12.7603C140.947 12.6742 146.269 17.7757 146.134 23.822C146.263 29.8683 140.903 35.0579 134.685 34.9288C128.469 35.0579 123.236 29.8683 123.365 23.822C123.236 17.7757 128.512 12.6312 134.728 12.7603ZM134.728 18.0418C131.512 18.0418 129.239 20.4849 129.239 23.8729C129.239 27.1748 131.512 29.6199 134.728 29.6199C137.858 29.6199 140.217 27.1748 140.217 23.8729C140.217 20.571 137.858 18.0339 134.728 18.0339V18.0418Z" fill="white"/>
<path d="M162 34.457C160.697 34.791 159.357 34.9637 158.012 34.9715C152.652 34.9715 149.522 32.3131 149.522 26.9945V8.32355L155.31 6.51221V13.2314H161.313V18.1216H155.31V26.482C155.31 28.8841 156.511 29.7839 159.256 29.7839C159.6 29.7839 160.5 29.7408 161.994 29.6137L162 34.457Z" fill="white"/>
<path d="M128.277 5.51868H141.222V10.0627H128.277V5.51868Z" fill="white"/>
<path d="M176.808 35V20.624H171.288V18.08H185.424V20.624H179.904V35H176.808ZM193.132 25.472L191.38 25.64C189.396 25.848 188.404 26.856 188.404 28.664V35H185.404V23.264H188.26V25.328C188.868 23.92 190.124 23.152 192.028 23.024L192.94 22.952L193.132 25.472ZM199.584 22.976C201.232 22.976 202.456 23.376 203.256 24.176C204.056 24.976 204.456 26.208 204.456 27.872V35H201.6V33.2C201.328 33.824 200.896 34.312 200.304 34.664C199.728 35.016 199.056 35.192 198.288 35.192C197.504 35.192 196.792 35.032 196.152 34.712C195.512 34.392 195.008 33.952 194.64 33.392C194.272 32.832 194.088 32.208 194.088 31.52C194.088 30.656 194.304 29.976 194.736 29.48C195.184 28.984 195.904 28.624 196.896 28.4C197.888 28.176 199.256 28.064 201 28.064H201.6V27.512C201.6 26.712 201.424 26.136 201.072 25.784C200.736 25.432 200.168 25.256 199.368 25.256C198.744 25.256 198.088 25.368 197.4 25.592C196.728 25.8 196.064 26.096 195.408 26.48L194.568 24.416C195.224 24 196.016 23.656 196.944 23.384C197.872 23.112 198.752 22.976 199.584 22.976ZM198.888 33.032C199.688 33.032 200.336 32.768 200.832 32.24C201.344 31.696 201.6 31 201.6 30.152V29.648H201.168C200.096 29.648 199.264 29.696 198.672 29.792C198.08 29.888 197.656 30.056 197.4 30.296C197.144 30.536 197.016 30.864 197.016 31.28C197.016 31.792 197.192 32.216 197.544 32.552C197.896 32.872 198.344 33.032 198.888 33.032ZM212.857 35.192C211.625 35.192 210.553 34.944 209.641 34.448C208.745 33.952 208.057 33.248 207.577 32.336C207.097 31.424 206.857 30.36 206.857 29.144C206.857 27.928 207.105 26.856 207.601 25.928C208.113 24.984 208.833 24.256 209.761 23.744C210.689 23.232 211.761 22.976 212.977 22.976C213.809 22.976 214.617 23.112 215.401 23.384C216.201 23.64 216.841 23.992 217.321 24.44L216.457 26.552C215.961 26.152 215.433 25.848 214.873 25.64C214.329 25.432 213.785 25.328 213.241 25.328C212.201 25.328 211.393 25.656 210.817 26.312C210.241 26.952 209.953 27.88 209.953 29.096C209.953 30.296 210.241 31.224 210.817 31.88C211.393 32.52 212.201 32.84 213.241 32.84C213.785 32.84 214.329 32.736 214.873 32.528C215.433 32.32 215.961 32.016 216.457 31.616L217.321 33.704C216.809 34.168 216.153 34.536 215.353 34.808C214.553 35.064 213.721 35.192 212.857 35.192ZM230.984 35H227.264L222.224 29.648V35H219.224V18.08H222.224V28.4L226.952 23.288H230.6L225.32 28.904L230.984 35ZM232.091 35V23.264H235.091V35H232.091ZM231.923 17.816H235.235V20.768H231.923V17.816ZM245.001 22.976C246.409 22.976 247.457 23.376 248.145 24.176C248.833 24.976 249.177 26.184 249.177 27.8V35H246.177V27.968C246.177 27.056 246.001 26.392 245.649 25.976C245.313 25.56 244.777 25.352 244.041 25.352C243.177 25.352 242.481 25.624 241.953 26.168C241.441 26.712 241.185 27.44 241.185 28.352V35H238.185V23.264H241.113V25.016C241.513 24.36 242.049 23.856 242.721 23.504C243.393 23.152 244.153 22.976 245.001 22.976ZM263.648 23.264V33.92C263.648 35.76 263.136 37.152 262.112 38.096C261.104 39.04 259.608 39.512 257.624 39.512C256.6 39.512 255.616 39.376 254.672 39.104C253.728 38.848 252.904 38.48 252.2 38L253.04 35.888C254.496 36.768 256 37.208 257.552 37.208C259.632 37.208 260.672 36.184 260.672 34.136V32.6C260.32 33.256 259.808 33.768 259.136 34.136C258.464 34.488 257.696 34.664 256.832 34.664C255.808 34.664 254.896 34.424 254.096 33.944C253.312 33.448 252.696 32.76 252.248 31.88C251.8 31 251.576 29.984 251.576 28.832C251.576 27.68 251.792 26.664 252.224 25.784C252.672 24.888 253.296 24.2 254.096 23.72C254.896 23.224 255.808 22.976 256.832 22.976C257.696 22.976 258.464 23.16 259.136 23.528C259.808 23.88 260.32 24.384 260.672 25.04V23.264H263.648ZM257.624 32.336C258.584 32.336 259.328 32.024 259.856 31.4C260.4 30.776 260.672 29.92 260.672 28.832C260.672 27.728 260.4 26.864 259.856 26.24C259.328 25.616 258.584 25.304 257.624 25.304C256.68 25.304 255.936 25.616 255.392 26.24C254.848 26.864 254.576 27.728 254.576 28.832C254.576 29.904 254.848 30.76 255.392 31.4C255.936 32.024 256.68 32.336 257.624 32.336ZM279.271 32.936C279.623 32.936 279.991 32.912 280.375 32.864L280.231 35.096C279.751 35.144 279.311 35.168 278.911 35.168C277.263 35.168 276.047 34.792 275.263 34.04C274.479 33.272 274.087 32.136 274.087 30.632V25.52H271.831V23.264H274.087V19.76H277.087V23.264H280.183V25.52H277.087V30.584C277.087 32.152 277.815 32.936 279.271 32.936ZM287.482 35.192C286.282 35.192 285.226 34.944 284.314 34.448C283.418 33.952 282.722 33.24 282.226 32.312C281.73 31.384 281.482 30.304 281.482 29.072C281.482 27.84 281.73 26.768 282.226 25.856C282.722 24.928 283.418 24.216 284.314 23.72C285.226 23.224 286.282 22.976 287.482 22.976C288.682 22.976 289.73 23.224 290.626 23.72C291.538 24.216 292.234 24.928 292.714 25.856C293.21 26.768 293.458 27.84 293.458 29.072C293.458 30.304 293.21 31.384 292.714 32.312C292.234 33.24 291.538 33.952 290.626 34.448C289.73 34.944 288.682 35.192 287.482 35.192ZM287.458 32.864C288.434 32.864 289.178 32.544 289.69 31.904C290.202 31.264 290.458 30.32 290.458 29.072C290.458 27.84 290.202 26.904 289.69 26.264C289.178 25.608 288.442 25.28 287.482 25.28C286.522 25.28 285.778 25.608 285.25 26.264C284.738 26.904 284.482 27.84 284.482 29.072C284.482 30.32 284.738 31.264 285.25 31.904C285.762 32.544 286.498 32.864 287.458 32.864ZM301.287 35.192C300.087 35.192 299.031 34.944 298.119 34.448C297.223 33.952 296.527 33.24 296.031 32.312C295.535 31.384 295.287 30.304 295.287 29.072C295.287 27.84 295.535 26.768 296.031 25.856C296.527 24.928 297.223 24.216 298.119 23.72C299.031 23.224 300.087 22.976 301.287 22.976C302.487 22.976 303.535 23.224 304.431 23.72C305.343 24.216 306.039 24.928 306.519 25.856C307.015 26.768 307.263 27.84 307.263 29.072C307.263 30.304 307.015 31.384 306.519 32.312C306.039 33.24 305.343 33.952 304.431 34.448C303.535 34.944 302.487 35.192 301.287 35.192ZM301.263 32.864C302.239 32.864 302.983 32.544 303.495 31.904C304.007 31.264 304.263 30.32 304.263 29.072C304.263 27.84 304.007 26.904 303.495 26.264C302.983 25.608 302.247 25.28 301.287 25.28C300.327 25.28 299.583 25.608 299.055 26.264C298.543 26.904 298.287 27.84 298.287 29.072C298.287 30.32 298.543 31.264 299.055 31.904C299.567 32.544 300.303 32.864 301.263 32.864ZM309.74 35V18.08H312.74V35H309.74Z" fill="white"/>
</svg>
